<mxfile host="Electron" agent="Mozilla/5.0 (X11; Linux x86_64) AppleWebKit/537.36 (KHTML, like Gecko) draw.io/26.0.4 Chrome/128.0.6613.186 Electron/32.2.5 Safari/537.36" version="26.0.4">
  <diagram name="Page-1" id="XvKyymG3QLvBTqcXd_3S">
    <mxGraphModel dx="819" dy="466" grid="1" gridSize="10" guides="1" tooltips="1" connect="1" arrows="1" fold="1" page="1" pageScale="1" pageWidth="1169" pageHeight="827" math="0" shadow="0">
      <root>
        <mxCell id="0" />
        <mxCell id="1" parent="0" />
        <mxCell id="b78ATylUgh2PaBBrLSRu-3" style="edgeStyle=orthogonalEdgeStyle;rounded=0;orthogonalLoop=1;jettySize=auto;html=1;entryX=0;entryY=0.5;entryDx=0;entryDy=0;endArrow=none;endFill=0;" edge="1" parent="1" source="b78ATylUgh2PaBBrLSRu-1" target="b78ATylUgh2PaBBrLSRu-2">
          <mxGeometry relative="1" as="geometry" />
        </mxCell>
        <mxCell id="b78ATylUgh2PaBBrLSRu-4" value="80 (http)&lt;div&gt;443 (https)&lt;/div&gt;" style="edgeLabel;html=1;align=center;verticalAlign=middle;resizable=0;points=[];" vertex="1" connectable="0" parent="b78ATylUgh2PaBBrLSRu-3">
          <mxGeometry x="-0.1" y="1" relative="1" as="geometry">
            <mxPoint as="offset" />
          </mxGeometry>
        </mxCell>
        <mxCell id="b78ATylUgh2PaBBrLSRu-1" value="Firewall" style="rounded=0;whiteSpace=wrap;html=1;" vertex="1" parent="1">
          <mxGeometry x="290" y="275" width="120" height="60" as="geometry" />
        </mxCell>
        <mxCell id="b78ATylUgh2PaBBrLSRu-6" style="edgeStyle=orthogonalEdgeStyle;rounded=0;orthogonalLoop=1;jettySize=auto;html=1;entryX=0.5;entryY=0;entryDx=0;entryDy=0;endArrow=none;endFill=0;" edge="1" parent="1" source="b78ATylUgh2PaBBrLSRu-2" target="b78ATylUgh2PaBBrLSRu-5">
          <mxGeometry relative="1" as="geometry" />
        </mxCell>
        <mxCell id="b78ATylUgh2PaBBrLSRu-8" value="5001 (http)" style="edgeLabel;html=1;align=center;verticalAlign=middle;resizable=0;points=[];" vertex="1" connectable="0" parent="b78ATylUgh2PaBBrLSRu-6">
          <mxGeometry x="-0.0524" relative="1" as="geometry">
            <mxPoint as="offset" />
          </mxGeometry>
        </mxCell>
        <mxCell id="b78ATylUgh2PaBBrLSRu-2" value="Nginx&lt;div&gt;redirect 80 to 443&lt;/div&gt;&lt;div&gt;&lt;span style=&quot;background-color: transparent; color: light-dark(rgb(0, 0, 0), rgb(255, 255, 255));&quot;&gt;/ip rewrite to / and&amp;nbsp;&lt;/span&gt;&lt;span style=&quot;background-color: transparent; color: light-dark(rgb(0, 0, 0), rgb(255, 255, 255));&quot;&gt;proxy pass to&lt;/span&gt;&lt;/div&gt;&lt;div&gt;&lt;span style=&quot;background-color: transparent; color: light-dark(rgb(0, 0, 0), rgb(255, 255, 255));&quot;&gt;UTILSERVERIP:5001&lt;/span&gt;&lt;/div&gt;&lt;div&gt;&lt;span style=&quot;background-color: transparent; color: light-dark(rgb(0, 0, 0), rgb(255, 255, 255));&quot;&gt;applying ssl cert&lt;/span&gt;&lt;/div&gt;" style="rounded=0;whiteSpace=wrap;html=1;" vertex="1" parent="1">
          <mxGeometry x="520" y="250" width="220" height="110" as="geometry" />
        </mxCell>
        <mxCell id="b78ATylUgh2PaBBrLSRu-5" value="main-apps&lt;div&gt;service run app with&lt;/div&gt;&lt;div&gt;UTILSERVERIP:5001&lt;/div&gt;" style="rounded=0;whiteSpace=wrap;html=1;" vertex="1" parent="1">
          <mxGeometry x="555" y="414" width="150" height="60" as="geometry" />
        </mxCell>
        <mxCell id="b78ATylUgh2PaBBrLSRu-10" style="edgeStyle=orthogonalEdgeStyle;rounded=0;orthogonalLoop=1;jettySize=auto;html=1;entryX=0.5;entryY=0;entryDx=0;entryDy=0;" edge="1" parent="1" source="b78ATylUgh2PaBBrLSRu-9" target="b78ATylUgh2PaBBrLSRu-1">
          <mxGeometry relative="1" as="geometry" />
        </mxCell>
        <mxCell id="b78ATylUgh2PaBBrLSRu-9" value="Internet" style="text;html=1;align=center;verticalAlign=middle;whiteSpace=wrap;rounded=0;" vertex="1" parent="1">
          <mxGeometry x="320" y="180" width="60" height="30" as="geometry" />
        </mxCell>
      </root>
    </mxGraphModel>
  </diagram>
</mxfile>
